<?xml version="1.0" encoding="UTF-8"?>
<svg id="Layer_1" xmlns="http://www.w3.org/2000/svg" version="1.1" viewBox="0 0 216 216">
  <!-- Generator: Adobe Illustrator 29.6.1, SVG Export Plug-In . SVG Version: 2.1.1 Build 9)  -->
  <defs>
    <style>
      .st0 {
        fill: #fff;
      }
    </style>
  </defs>
  <rect class="st0" width="216" height="216"/>
  <g>
    <path d="M49.8889,52.08566c0,1.78086-.41416,3.16621-1.24145,4.15654-.82777.99106-2.04405,1.48598-3.64882,1.48598-1.6052,0-2.82751-.49492-3.66741-1.48598-.84033-.99033-1.26004-2.37568-1.26004-4.15654v-15.08405h-5.49203v14.97135c0,2.45796.40057,4.50804,1.20366,6.15.80211,1.64275,1.97462,2.87761,3.51698,3.70514,1.5423.82783,3.44195,1.24145,5.69884,1.24145s4.15654-.41361,5.6989-1.24145c1.54236-.82753,2.71432-2.06239,3.51692-3.70514.80217-1.64195,1.20372-3.69203,1.20372-6.15v-14.97135h-5.52927s0,15.08405,0,15.08405Z"/>
    <polygon points="93.78098 52.79683 82.15772 37.00161 77.15481 37.00161 77.15481 62.61814 82.64685 62.61814 82.64685 46.83097 94.30783 62.61814 99.27301 62.61814 99.27301 37.00161 93.78098 37.00161 93.78098 52.79683"/>
    <path d="M132.26695,58.17958c-1.30435,0-2.48289-.31323-3.53606-.94053-1.05323-.62645-1.94342-1.5423-2.67056-2.74602l-4.28838,2.6708c.70197,1.40473,1.56095,2.55207,2.57694,3.44195,1.0155.89049,2.16833,1.55522,3.4606,1.99352,1.29124.43854,2.67659.65845,4.15654.65845,1.9308,0,3.59793-.34523,5.0029-1.03464,1.40401-.68935,2.48837-1.62336,3.2538-2.80234.76437-1.1783,1.14734-2.52013,1.14734-4.02495,0-1.47922-.28885-2.74583-.86555-3.799-.57719-1.05323-1.50458-1.94317-2.78326-2.6708-1.27917-.72714-2.97195-1.34134-5.07841-1.84327-1.75569-.40081-2.93375-.83332-3.53557-1.29783-.60184-.46371-.90274-1.04665-.90274-1.74886,0-.75256.29433-1.33555.88361-1.74917.58926-.41392,1.42308-.62072,2.50148-.62072.90274,0,1.81158.18791,2.72743.5641.91481.37613,1.69833.99106,2.35098,1.84327l4.28789-2.97172c-.9028-1.37883-2.10043-2.49496-3.59195-3.34766-1.49249-.8524-3.31664-1.27917-5.47343-1.27917-1.90617,0-3.54861.3387-4.92745,1.01575-1.3798.6771-2.43907,1.59874-3.17877,2.76467-.73976,1.16617-1.10961,2.50148-1.10961,4.0063,0,1.27893.25063,2.43907.75232,3.4795.5012,1.04086,1.36018,1.93708,2.57694,2.68939,1.21579.75232,2.86427,1.37956,4.9461,1.88076,1.27917.30091,2.2569.61493,2.93423.94053.67729.32609,1.14728.67101,1.41046,1.03434.26318.36382.39502.79632.39502,1.29776,0,.77749-.2883,1.40473-.86501,1.88076-.57719.47682-1.4296.71483-2.5578.71483h-.00002Z"/>
    <polygon points="168.049 62.61814 173.57832 62.61814 173.57832 42.30549 181.32726 42.30549 181.32726 37.00161 160.4505 37.00161 160.4505 42.30549 168.049 42.30549 168.049 62.61814"/>
    <path d="M52.46529,108.92174c.8399-1.32897,1.2601-2.92113,1.2601-4.7772,0-1.83047-.42019-3.41032-1.2601-4.73978-.84033-1.32873-1.98115-2.35678-3.42281-3.08442-1.44222-.72714-3.07869-1.09102-4.90886-1.09102h-9.44177v25.61659h5.49209v-7.78647h3.7102l4.07596,7.78647h6.01895l-4.70918-8.9961c1.32531-.70685,2.39372-1.67554,3.18541-2.92808ZM40.18394,100.5332h3.53551c1.37932,0,2.4512.3075,3.21656.92164.76438.61493,1.14734,1.51115,1.14734,2.6897,0,1.17903-.38295,2.07525-1.14734,2.68939-.76536.61493-1.83724.92164-3.21656.92164h-3.53551v-7.22237Z"/>
    <path d="M92.88524,110.31337c0,1.78092-.41416,3.16621-1.24145,4.15654-.82777.99112-2.04405,1.48598-3.64876,1.48598-1.60526,0-2.82757-.49486-3.66741-1.48598-.84039-.99033-1.2601-2.37562-1.2601-4.15654v-15.08405h-5.49203v14.97135c0,2.45796.40057,4.50804,1.20366,6.15.80217,1.64275,1.97462,2.87761,3.51698,3.7052,1.54236.82777,3.44195,1.24139,5.6989,1.24139s4.15648-.41361,5.69884-1.24139c1.54236-.82759,2.71432-2.06245,3.51698-3.7052.80211-1.64195,1.20366-3.69203,1.20366-6.15v-14.97135h-5.52927v15.08405Z"/>
    <path d="M128.85518,101.11644c1.1151-.66424,2.38824-.99685,3.81784-.99685,1.50462,0,2.81445.33261,3.9306.99685,1.11565.66473,2.08788,1.71144,2.91563,3.1408l5.0029-1.91824c-1.02853-2.40762-2.508-4.26296-4.4388-5.56731-1.93135-1.30355-4.40114-1.95597-7.41034-1.95597-1.90617,0-3.65533.31981-5.2475.95912-1.59264.63956-2.96593,1.55516-4.11875,2.74602-1.15386,1.19134-2.05008,2.59559-2.6897,4.21292-.63956,1.61757-.95912,3.39191-.95912,5.32271,0,2.58322.53241,4.87137,1.59874,6.86483,1.0653,1.9937,2.56987,3.55471,4.51377,4.68316,1.94293,1.12844,4.24413,1.69279,6.90256,1.69279,3.0092,0,5.47899-.65193,7.41034-1.95597,1.9308-1.30355,3.41026-3.15969,4.4388-5.56731l-5.0029-1.91824c-.82777,1.42936-1.8,2.47028-2.91563,3.12221-1.11613.65217-2.42596.97796-3.9306.97796-1.4296,0-2.70274-.32578-3.81784-.97796-1.11613-.65193-1.99376-1.57357-2.63332-2.76491-.63962-1.19086-.95912-2.5767-.95912-4.15654,0-1.60447.3195-2.9964.95912-4.17537.63956-1.17854,1.51719-2.09994,2.63332-2.76467v-.00002Z"/>
    <polygon points="174.29333 120.84591 174.29333 100.5332 182.04231 100.5332 182.04231 95.22932 161.16557 95.22932 161.16557 100.5332 168.76405 100.5332 168.76405 120.84591 174.29333 120.84591"/>
    <path d="M48.85828,168.54114c0,1.78085-.41416,3.16621-1.24145,4.15648-.82777.99112-2.04405,1.48604-3.64876,1.48604-1.60526,0-2.82757-.49492-3.66741-1.48604-.84039-.99026-1.26004-2.37563-1.26004-4.15648v-15.08405h-5.49209v14.97128c0,2.45796.40057,4.50804,1.20372,6.14999.80211,1.64275,1.97456,2.87767,3.51692,3.7052,1.54236.82777,3.44201,1.24139,5.6989,1.24139s4.15654-.4136,5.6989-1.24139c1.5423-.82753,2.71432-2.06245,3.51692-3.7052.80211-1.64195,1.20372-3.69203,1.20372-6.14999v-14.97128h-5.52934s0,15.08405,0,15.08405Z"/>
    <path d="M94.92825,167.14944c.8399-1.32896,1.26004-2.92113,1.26004-4.77721,0-1.83047-.42013-3.41026-1.26004-4.73978-.84033-1.32874-1.98115-2.35678-3.42281-3.08443-1.44222-.72714-3.07869-1.09096-4.90886-1.09096h-9.44177v25.61653h5.49203v-7.78647h3.71026l4.07596,7.78647h6.01895l-4.70924-8.99609c1.32538-.70679,2.39378-1.67554,3.18547-2.92809l.00002.00002ZM82.64685,158.76091h3.53557c1.37932,0,2.45114.3075,3.21656.92165.76438.61493,1.14734,1.51115,1.14734,2.6897,0,1.17903-.38295,2.07526-1.14734,2.68939-.76542.61493-1.83724.92165-3.21656.92165h-3.53557v-7.22238Z"/>
    <polygon points="123.70124 179.07362 139.98875 179.07362 139.98875 173.84496 129.19334 173.84496 129.19334 168.84206 137.92003 168.84206 137.92003 163.61339 129.19334 163.61339 129.19334 158.6857 139.98875 158.6857 139.98875 153.45709 123.70124 153.45709 123.70124 179.07362"/>
    <path d="M180.89047,159.38164c-1.04115-1.91824-2.52055-3.38533-4.4388-4.40108-1.91824-1.0155-4.20689-1.52347-6.86482-1.52347h-8.9527v25.61653h8.91498c2.65794,0,4.95256-.5015,6.88391-1.50462,1.93086-1.00264,3.41629-2.45741,4.45744-4.36334,1.04013-1.90569,1.56094-4.21317,1.56094-6.92145,0-2.68312-.52081-4.98407-1.56094-6.90256l-.00002-.00002ZM175.84978,170.57233c-.63956,1.10382-1.52974,1.9127-2.6705,2.42627-1.14178.51424-2.47685.77115-4.0061.77115h-3.04694v-15.00883h3.08417c1.5298,0,2.86481.27,4.0061.80894,1.14124.53941,2.02492,1.36041,2.65192,2.46368.627,1.10382.94048,2.52039.94048,4.25066,0,1.75575-.3195,3.1851-.95912,4.28813Z"/>
  </g>
</svg>
