<svg width="40" height="32" viewBox="8 4 40 32" fill="none" xmlns="http://www.w3.org/2000/svg">
<g id="angry-yellow">
<path id="body" d="M32.8565 16.5119C31.1466 16.7267 29.4508 17.0336 27.7801 17.431C26.386 17.763 24.9791 18.1354 23.7009 18.7592C22.5951 19.299 21.6232 20.0356 20.7874 20.8907C19.1189 22.5986 17.987 24.6823 16.8926 26.7273C16.8529 26.8012 16.5585 26.8025 16.5191 26.7273C15.9788 25.6886 15.4169 24.6549 14.7308 23.69C14.135 22.8515 13.4412 22.0583 12.5937 21.4243C11.6804 20.7409 10.6099 20.2789 9.45223 20.0806C8.22481 19.8702 6.95487 19.9521 5.73355 20.1574C4.46141 20.3713 3.21176 20.7066 1.98571 21.0819C1.95849 21.0903 1.64935 21.0957 1.71657 21.0266C2.51068 20.2116 3.27897 19.3719 3.95087 18.4674C5.07775 16.9507 5.92688 15.2271 6.01658 13.3682C6.09326 11.7821 5.60717 10.1005 4.39806 8.93418C4.35668 8.9311 4.31862 8.92139 4.29613 8.90014C4.26807 8.87353 4.2728 8.85153 4.29225 8.83539C4.27837 8.82283 4.26502 8.81004 4.25114 8.79776C4.22504 8.77473 4.38112 8.7499 4.41808 8.78137C4.42336 8.78599 4.42864 8.79085 4.43391 8.79546C5.19997 8.66722 5.94187 8.43023 6.62741 8.0893C7.88457 7.46429 8.937 6.52137 9.63139 5.36987C10.3583 4.16462 10.686 2.76996 10.5674 1.39579C10.5586 1.29187 10.8763 1.33181 10.9271 1.36148C12.0032 1.99241 13.082 2.62509 14.2239 3.15157C16.2016 4.06377 18.5028 4.67726 20.7052 4.15258C22.5348 3.71696 24.1075 2.5396 25.0608 1.05C25.1027 0.984486 25.4571 0.976282 25.4402 1.06817C25.171 2.54778 24.9146 4.04046 24.9249 5.54517C24.9335 6.81466 25.1507 8.07954 25.6818 9.25587C26.1324 10.2538 26.7759 11.1685 27.5231 11.9986C29.0741 13.7216 31.0312 15.0863 32.9719 16.4116C33.0612 16.4725 32.8965 16.5068 32.8565 16.5119Z" fill="#E9C91A"/>
<g id="eyes">
<g id="Group">
<path id="Vector" d="M16.3867 14.3288L23.6828 10.9922C23.6828 10.9922 20.8772 19.9578 16.3867 14.3288Z" fill="#F2F2F2"/>
<path id="Vector_2" d="M19.2209 16.1894C19.9211 16.1894 20.4887 15.6223 20.4887 14.9228C20.4887 14.2233 19.9211 13.6562 19.2209 13.6562C18.5207 13.6562 17.9531 14.2233 17.9531 14.9228C17.9531 15.6223 18.5207 16.1894 19.2209 16.1894Z" fill="#1A1A1A"/>
</g>
<g id="Group_2">
<path id="Vector_3" d="M15.1984 14.3288L7.90234 10.9922C7.90234 10.9922 10.7079 19.9578 15.1984 14.3288Z" fill="#F2F2F2"/>
<path id="Vector_4" d="M12.3615 16.1894C13.0617 16.1894 13.6293 15.6223 13.6293 14.9228C13.6293 14.2233 13.0617 13.6562 12.3615 13.6562C11.6613 13.6562 11.0938 14.2233 11.0938 14.9228C11.0938 15.6223 11.6613 16.1894 12.3615 16.1894Z" fill="#1A1A1A"/>
</g>
</g>
</g>
<g id="Frame 2147239678">
<g id="Group_3">
<path id="Vector_5" d="M44.9763 17.7951C44.0682 18.9022 42.5632 19.2037 41.221 19.3709C40.4202 19.4706 39.6156 19.5359 38.8097 19.5705C38.4055 19.5881 38.0011 19.597 37.5966 19.5977C37.5822 19.5977 37.5674 19.598 37.5529 19.598C38.7293 20.3494 39.9183 21.1661 40.7625 22.2987C41.5318 23.3306 41.9785 24.6368 41.6546 25.9205C41.508 26.5017 41.2153 27.0456 40.7709 27.45C40.2549 27.9195 39.5709 28.1586 38.8773 28.0518C38.1696 27.9425 37.5623 27.5289 36.9871 27.1258C36.3937 26.71 35.821 26.2667 35.2706 25.7946C34.7229 25.3249 34.1966 24.8312 33.7025 24.3043C33.5841 24.1782 33.4681 24.0506 33.3541 23.9212C33.3512 23.9675 33.348 24.0135 33.3448 24.0592C33.2883 24.8886 33.1718 25.7132 32.9996 26.526C32.8485 27.2378 32.6558 27.942 32.4175 28.6293C32.2148 29.2138 31.96 29.805 31.5138 30.245C31.1091 30.6442 30.5477 30.8794 29.9782 30.8517C29.3836 30.8225 28.9325 30.4747 28.6399 29.9682C28.3214 29.4166 28.1246 28.7743 27.9585 28.1621C27.7774 27.4945 27.6566 26.8104 27.5966 26.1208C27.5342 25.4001 27.5266 24.6566 27.6037 23.9252C27.5819 23.9553 27.5598 23.9855 27.5369 24.0157C27.3325 24.2853 27.0976 24.5354 26.8588 24.7743C26.3917 25.2413 25.8784 25.6615 25.3278 26.0248C24.8401 26.3466 24.3231 26.6244 23.786 26.8532C23.2204 27.0943 22.6059 27.3234 21.9907 27.382C21.4347 27.4349 20.8612 27.3103 20.4892 26.8648C20.1698 26.4822 20.0442 25.9499 20.0821 25.4587C20.1273 24.8708 20.4243 24.3293 20.7764 23.871C21.1914 23.3311 21.6936 22.8564 22.1801 22.3833C22.84 21.7417 23.5155 21.1025 24.2209 20.503C23.6216 20.5515 23.0206 20.5591 22.4285 20.5265C21.7727 20.4901 21.1061 20.4097 20.4771 20.2129C19.9305 20.042 19.382 19.7535 19.0344 19.2819C18.7287 18.8676 18.5668 18.3034 18.6985 17.7949C18.8496 17.2119 19.3612 16.9 19.8688 16.6571C21.0526 16.0909 22.3644 15.8696 23.6656 15.8196C24.3238 15.7944 24.9833 15.8176 25.6403 15.8614C25.7022 15.8653 25.7642 15.8696 25.8263 15.8738C25.2238 15.6937 24.6673 15.3306 24.186 14.9349C23.6516 14.4953 23.1835 13.9799 22.7541 13.4377C22.3464 12.923 21.957 12.3855 21.6025 11.8325C21.2386 11.2643 20.9322 10.6109 21.0003 9.9173C21.1224 8.67219 22.4585 8.19507 23.5413 8.38626C24.2234 8.5067 24.8374 8.85522 25.404 9.24181C25.9519 9.61578 26.4873 10.013 27.0037 10.43C27.4106 10.7588 27.8072 11.1045 28.176 11.4768C28.1327 10.706 28.0792 9.9314 28.1126 9.15968C28.1418 8.48271 28.2475 7.80178 28.5182 7.17725C28.7686 6.59971 29.1652 6.09884 29.6632 5.71795C30.1539 5.34297 30.7848 5.0422 31.4067 5.00289C32.0539 4.96183 32.5922 5.36352 32.96 5.86834C33.6421 6.80476 33.7033 8.07758 33.5495 9.18764C33.4468 9.92817 33.2482 10.6519 33.0957 11.3828C33.0185 11.7528 32.9512 12.1253 32.9121 12.5015C32.9092 12.5302 32.9067 12.5589 32.9043 12.5878C32.9495 12.505 32.9991 12.4234 33.0519 12.342C33.2603 12.0214 33.493 11.7125 33.7357 11.4174C34.2251 10.8225 34.76 10.2668 35.335 9.75505C36.3116 8.88591 37.4797 7.9554 38.8365 7.87871C39.1756 7.85966 39.5286 7.89652 39.8372 8.04692C40.1045 8.17726 40.3154 8.39394 40.462 8.65191C40.7716 9.19754 40.8397 9.85843 40.7522 10.4723C40.5598 11.8216 39.6856 12.9138 38.6853 13.7738C38.1618 14.2242 37.5989 14.6249 37.0399 15.0291C36.9659 15.0825 36.892 15.1359 36.818 15.1893C37.2743 15.0179 37.737 14.8628 38.2023 14.7216C39.0094 14.4765 39.8303 14.2749 40.6672 14.1636C41.4058 14.0654 42.163 14.0335 42.905 14.1146C43.4721 14.1767 44.048 14.3179 44.5431 14.6118C45.052 14.914 45.4284 15.3971 45.5176 15.9942C45.6139 16.6403 45.3842 17.298 44.9763 17.7951Z" fill="#A665C9"/>
<g id="Group_4">
<path id="Vector_6" d="M30.5776 17.8834C30.5822 18.4881 30.4184 19.0798 30.1855 19.6326C30.1844 19.6353 30.1832 19.6381 30.1819 19.6409C30.0987 19.8337 30.0045 20.0254 29.8956 20.2077C29.6616 20.6006 29.3596 20.9496 28.9539 21.1725C28.4044 21.474 27.6545 21.5119 27.187 21.0338C26.8263 20.6649 26.7342 20.0997 26.8018 19.604C26.8708 19.0978 27.1068 18.6304 27.2519 18.1445C27.3254 17.8977 27.383 17.6414 27.3683 17.3818C27.3534 17.1212 27.2409 16.917 27.091 16.711C26.9411 16.5047 26.8504 16.2851 26.8717 16.0244C26.8916 15.7817 26.9872 15.5549 27.1435 15.3694C27.5255 14.9166 28.1697 14.9011 28.6776 15.1272C28.9544 15.2504 29.1976 15.4382 29.4224 15.6403C29.575 15.7773 29.7233 15.9204 29.8599 16.0738C29.9146 16.1351 29.9673 16.1981 30.018 16.2629C30.3842 16.7327 30.5731 17.2863 30.5776 17.8834Z" fill="#F2F2F2"/>
<g id="Group_5">
<path id="Vector_7" d="M30.018 16.2629C29.9673 16.1981 29.9146 16.1351 29.8599 16.0738C29.7233 15.9204 29.575 15.7773 29.4224 15.6403C29.1976 15.4382 28.9544 15.2504 28.6776 15.1272C28.1697 14.9011 27.5255 14.9166 27.1435 15.3694C26.9872 15.5549 26.8916 15.7817 26.8717 16.0244C26.8504 16.2851 26.9411 16.5047 27.091 16.711C27.2409 16.917 27.3534 17.1212 27.3683 17.3818C27.383 17.6414 27.3254 17.8977 27.2519 18.1445C27.1068 18.6304 26.8708 19.0978 26.8018 19.604C26.7342 20.0997 26.8263 20.6649 27.187 21.0338C27.6545 21.5119 28.4044 21.474 28.9539 21.1725C29.3596 20.9496 29.6616 20.6006 29.8956 20.2077C30.0045 20.0254 30.0987 19.8337 30.1819 19.6409C30.1832 19.6381 30.1844 19.6353 30.1855 19.6326C30.4184 19.0798 30.5822 18.4881 30.5776 17.8834C30.5731 17.2863 30.3842 16.7327 30.018 16.2629ZM29.9756 19.5089C29.7616 20.0075 29.4813 20.5113 29.0335 20.8338C29.0195 20.8437 29.0055 20.8537 28.9913 20.8634C28.9778 20.8726 28.964 20.8816 28.9501 20.8903C28.5321 21.1575 27.9793 21.2712 27.5344 21.0008C27.1247 20.7519 27.0009 20.2282 27.0275 19.7772C27.0546 19.3188 27.2597 18.8851 27.4066 18.4567C27.5514 18.0338 27.6827 17.5669 27.5736 17.1195C27.5216 16.9073 27.4077 16.7366 27.2824 16.5619C27.1421 16.3663 27.0768 16.1607 27.1318 15.9192C27.2498 15.4013 27.7565 15.1489 28.254 15.2465C28.6118 15.3168 28.9232 15.5212 29.2001 15.763C29.2021 15.7649 29.2044 15.7667 29.2065 15.7686C29.3357 15.8821 29.4574 16.0034 29.5725 16.1227C30.0022 16.5682 30.2898 17.0928 30.329 17.7207C30.3673 18.3337 30.2119 18.9481 29.9756 19.5089Z" fill="#F2F2F2"/>
</g>
<path id="Vector_8" d="M30.575 17.8796C30.5796 18.4843 30.4158 19.076 30.1829 19.6288C30.1818 19.6315 30.1806 19.6343 30.1793 19.6371C30.0961 19.8299 30.0019 20.0217 29.893 20.2039C29.7915 20.3541 29.6783 20.4967 29.55 20.6268C29.5454 20.63 29.5406 20.633 29.536 20.636C29.3591 20.7537 29.1569 20.8443 28.9475 20.8866C28.711 20.9343 28.4653 20.9205 28.2359 20.8137C27.7482 20.5869 27.7017 20.077 27.896 19.6433C28.1222 19.1628 28.4536 18.7087 28.5249 18.1781C28.5647 17.8787 28.5054 17.5993 28.4169 17.313C28.3349 17.0465 28.2416 16.7743 28.2505 16.4933C28.2636 16.076 28.5631 15.8271 28.9903 15.7752C29.0579 15.7666 29.1274 15.7613 29.1975 15.7592C29.3082 15.7553 29.4207 15.7595 29.5321 15.7722C29.5456 15.7835 29.5587 15.7948 29.572 15.8063C29.6696 15.8914 29.7656 15.9789 29.8573 16.07C29.9121 16.1314 29.9648 16.1943 30.0154 16.2592C30.3816 16.7289 30.5705 17.2826 30.575 17.8796Z" fill="#1A1A1A"/>
</g>
<g id="Group_6">
<path id="Vector_9" d="M35.3823 17.8834C35.3869 18.4881 35.223 19.0798 34.9902 19.6326C34.9891 19.6353 34.9879 19.6381 34.9865 19.6409C34.9033 19.8337 34.8092 20.0254 34.7003 20.2077C34.4663 20.6006 34.1643 20.9496 33.7586 21.1725C33.2091 21.474 32.4592 21.5119 31.9917 21.0338C31.631 20.6649 31.5389 20.0997 31.6065 19.604C31.6754 19.0978 31.9115 18.6304 32.0566 18.1445C32.1301 17.8977 32.1876 17.6414 32.173 17.3818C32.1581 17.1212 32.0456 16.917 31.8957 16.711C31.7458 16.5047 31.655 16.2851 31.6764 16.0244C31.6963 15.7817 31.7919 15.5549 31.9482 15.3694C32.3302 14.9166 32.9744 14.9011 33.4822 15.1272C33.7591 15.2504 34.0022 15.4382 34.227 15.6403C34.3797 15.7773 34.528 15.9204 34.6645 16.0738C34.7193 16.1351 34.772 16.1981 34.8227 16.2629C35.1889 16.7327 35.3777 17.2863 35.3823 17.8834Z" fill="#F2F2F2"/>
<g id="Group_7">
<path id="Vector_10" d="M34.8227 16.2629C34.772 16.1981 34.7193 16.1351 34.6645 16.0738C34.528 15.9204 34.3797 15.7773 34.227 15.6403C34.0022 15.4382 33.7591 15.2504 33.4822 15.1272C32.9744 14.9011 32.3302 14.9166 31.9482 15.3694C31.7919 15.5549 31.6963 15.7817 31.6764 16.0244C31.655 16.2851 31.7458 16.5047 31.8957 16.711C32.0456 16.917 32.1581 17.1212 32.173 17.3818C32.1876 17.6414 32.1301 17.8977 32.0566 18.1445C31.9115 18.6304 31.6754 19.0978 31.6065 19.604C31.5389 20.0997 31.631 20.6649 31.9917 21.0338C32.4592 21.5119 33.2091 21.474 33.7586 21.1725C34.1643 20.9496 34.4663 20.6006 34.7003 20.2077C34.8092 20.0254 34.9033 19.8337 34.9865 19.6409C34.9879 19.6381 34.9891 19.6353 34.9902 19.6326C35.223 19.0798 35.3869 18.4881 35.3823 17.8834C35.3777 17.2863 35.1889 16.7327 34.8227 16.2629ZM34.7803 19.5089C34.5662 20.0075 34.286 20.5113 33.8382 20.8338C33.8242 20.8437 33.8102 20.8537 33.796 20.8634C33.7825 20.8726 33.7687 20.8816 33.7547 20.8903C33.3367 21.1575 32.784 21.2712 32.3391 21.0008C31.9294 20.7519 31.8056 20.2282 31.8322 19.7772C31.8592 19.3188 32.0643 18.8851 32.2112 18.4567C32.3561 18.0338 32.4874 17.5669 32.3783 17.1195C32.3263 16.9073 32.2124 16.7366 32.087 16.5619C31.9468 16.3663 31.8815 16.1607 31.9365 15.9192C32.0545 15.4013 32.5612 15.1489 33.0587 15.2465C33.4165 15.3168 33.7279 15.5212 34.0048 15.763C34.0068 15.7649 34.0091 15.7667 34.0112 15.7686C34.1404 15.8821 34.2621 16.0034 34.3772 16.1227C34.8069 16.5682 35.0945 17.0928 35.1337 17.7207C35.1719 18.3337 35.0165 18.9481 34.7803 19.5089Z" fill="#F2F2F2"/>
</g>
<path id="Vector_11" d="M35.3797 17.8796C35.3843 18.4843 35.2205 19.076 34.9876 19.6288C34.9865 19.6315 34.9853 19.6343 34.984 19.6371C34.9008 19.8299 34.8066 20.0217 34.6977 20.2039C34.5962 20.3541 34.483 20.4967 34.3546 20.6268C34.3501 20.63 34.3453 20.633 34.3407 20.636C34.1637 20.7537 33.9616 20.8443 33.7521 20.8866C33.5156 20.9343 33.27 20.9205 33.0406 20.8137C32.5529 20.5869 32.5064 20.077 32.7007 19.6433C32.9269 19.1628 33.2583 18.7087 33.3296 18.1781C33.3694 17.8787 33.3101 17.5993 33.2216 17.313C33.1396 17.0465 33.0463 16.7743 33.0552 16.4933C33.0683 16.076 33.3678 15.8271 33.795 15.7752C33.8626 15.7666 33.9321 15.7613 34.0022 15.7592C34.1129 15.7553 34.2254 15.7595 34.3368 15.7722C34.3503 15.7835 34.3634 15.7948 34.3766 15.8063C34.4743 15.8914 34.5703 15.9789 34.662 16.07C34.7167 16.1314 34.7694 16.1943 34.8201 16.2592C35.1863 16.7289 35.3752 17.2826 35.3797 17.8796Z" fill="#1A1A1A"/>
</g>
</g>
<g id="Group_8">
<path id="Vector_12" d="M46.6245 37.1148C45.3381 40.1521 43.1523 42.8481 40.2847 44.3716C38.5634 45.2862 36.6613 45.7099 34.7469 45.8947C32.7717 46.0861 30.7593 46.0518 28.8131 45.6211C25.4829 44.8849 22.2341 42.7848 20.914 39.3948C20.3555 37.9617 20.1863 36.3782 20.2239 34.8223C20.1897 34.5797 20.1609 34.337 20.137 34.0937C19.9409 32.0677 20.1529 30.0176 20.7787 28.0871C21.9568 24.4544 24.5539 21.2886 28.0506 19.9274C29.9974 19.1698 32.1373 18.8375 34.2093 18.7866C36.2815 18.7357 38.3553 19.0493 40.3242 19.7232C42.1143 20.3354 43.9008 21.2225 45.2417 22.6288C46.399 23.8422 47.1579 25.4028 47.575 27.0452C48.4192 30.3694 47.9458 33.9951 46.6245 37.1148Z" fill="#4C9B50"/>
<g id="Group_9">
<path id="Vector_13" d="M39.7434 34.2563C34.9929 34.2563 34.9375 29.7969 34.9375 29.7969H44.5493C44.5493 29.7969 44.7328 34.2563 39.7434 34.2563Z" fill="#F2F2F2"/>
<path id="Vector_14" d="M43.7289 29.7969C43.6689 30.6563 43.2068 33.2256 39.8264 33.2256C36.6078 33.2256 36.0379 30.6563 35.9375 29.7969H43.7289Z" fill="#1A1A1A"/>
</g>
<g id="Group_10">
<path id="Vector_15" d="M29.2364 34.2563C33.987 34.2563 34.0424 29.7969 34.0424 29.7969H24.4306C24.4306 29.7969 24.2471 34.2563 29.2364 34.2563Z" fill="#F2F2F2"/>
<path id="Vector_16" d="M25.2539 29.7969C25.3139 30.6563 25.7761 33.2256 29.1564 33.2256C32.375 33.2256 32.9449 30.6563 33.0453 29.7969H25.2539Z" fill="#1A1A1A"/>
</g>
</g>
<g id="Group_11">
<g id="Group 22">
<g id="Group_12">
<g id="Group_13">
<path id="Vector_17" d="M15.6695 21.4945C15.995 20.3147 16.2755 19.1774 16.63 18.0646C16.806 17.5121 17.0832 16.9836 17.3752 16.4807C18.1145 15.2074 19.6383 14.2289 21.1306 14.2503C22.984 14.277 24.0815 15.9166 24.3965 17.6274C24.5701 18.5705 24.5283 19.5088 24.3447 20.445C24.2947 20.7 24.2521 20.9564 24.2089 21.1971C24.7605 20.7173 25.3004 20.2441 25.8441 19.7755C27.1822 18.6226 28.7641 18.05 30.4658 17.7748C32.2963 17.4789 35.5056 17.6243 35.1576 20.3138C35.0203 21.3752 34.479 22.2569 33.8045 23.0468C32.9018 24.104 31.7924 24.9201 30.6873 25.7373C30.3617 25.9781 30.0118 26.1887 29.7068 26.4537C28.4343 27.5597 27.6386 28.9491 27.4231 30.6512C27.3868 30.938 27.4298 31.265 27.5335 31.5345C28.0948 32.9945 29.0061 34.4159 29.1059 36.0192C29.2666 38.5981 28.1801 40.8377 25.9634 42.0903C23.1461 43.6822 19.7792 44.034 16.6389 43.4641C14.0746 42.9988 10.9455 41.849 10.1306 39.0351C9.37683 36.4323 10.3786 34.1124 10.9827 31.6087C11.1886 30.7552 11.1162 29.9259 10.7235 29.1119C10.1902 28.0064 9.64383 26.9151 8.97083 25.8869C8.44737 25.0871 7.97893 24.2474 7.52376 23.4043C7.04534 22.5181 6.90107 21.5636 7.06479 20.5561C7.45518 18.1541 9.98909 17.8967 11.7975 18.7556C12.3045 18.9964 12.8179 19.2233 13.3207 19.4725C14.1505 19.8837 14.8708 20.4381 15.4241 21.2025C15.4954 21.3009 15.5803 21.389 15.6695 21.4945Z" fill="#EF4400"/>
</g>
</g>
<g id="Group_14">
<g id="Group_15">
<g id="Group_16">
<g id="Group_17">
<path id="Vector_18" d="M17.1026 33.6777C17.1026 33.9391 17.0873 34.1938 17.0588 34.4395C17.0588 34.4395 17.061 34.4417 17.0588 34.4439C16.8969 35.8156 16.3084 36.9147 15.547 37.3034C15.3523 37.4017 15.1488 37.4554 14.9366 37.4554C13.7419 37.4554 12.7705 35.7642 12.7705 33.6777C12.7705 31.5934 13.742 29.9023 14.9366 29.9023C16.1333 29.9023 17.1026 31.5934 17.1026 33.6777Z" fill="white"/>
</g>
<g id="Group_18">
<path id="Vector_19" d="M17.0585 34.4401C17.0585 34.4401 17.0606 34.4422 17.0585 34.4445C16.8966 35.8162 16.308 36.9152 15.5466 37.304C15.1112 36.9644 14.8027 36.0976 14.8027 35.0834C14.8027 33.7721 15.3169 32.7109 15.9536 32.7109C16.4809 32.7109 16.9228 33.4414 17.0585 34.4401Z" fill="black"/>
</g>
</g>
<g id="Group_19">
<g id="Group_20">
<path id="Vector_20" d="M21.1641 33.6777C21.1641 33.9391 21.1794 34.1938 21.2078 34.4395C21.2078 34.4395 21.2056 34.4417 21.2078 34.4439C21.3697 35.8156 21.9583 36.9147 22.7197 37.3034C22.9144 37.4017 23.1179 37.4554 23.3301 37.4554C24.5247 37.4554 25.4961 35.7642 25.4961 33.6777C25.4961 31.5934 24.5247 29.9023 23.3301 29.9023C22.1333 29.9023 21.1641 31.5934 21.1641 33.6777Z" fill="white"/>
</g>
<g id="Group_21">
<path id="Vector_21" d="M21.208 34.4401C21.208 34.4401 21.2058 34.4422 21.208 34.4445C21.3699 35.8162 21.9584 36.9152 22.7198 37.304C23.1552 36.9644 23.4637 36.0976 23.4637 35.0834C23.4637 33.7721 22.9496 32.7109 22.3129 32.7109C21.7856 32.7109 21.3436 33.4414 21.208 34.4401Z" fill="black"/>
</g>
</g>
</g>
</g>
</g>
</g>
</g>
</svg>
