<svg width="409" height="144" viewBox="0 0 409 144" fill="none" xmlns="http://www.w3.org/2000/svg">
<g clip-path="url(#clip0_11229_4718)">
<path d="M161.42 39H151.858V48.5532H161.42V39Z" fill="white"/>
<path d="M128.087 62.6637H127.122V57.668H117.561V104.733H127.122V79.4037C127.122 71.1652 132.122 65.9065 139.929 65.9065H146.244V57.668H139.665C134.753 57.668 130.894 59.3332 128.087 62.6637Z" fill="white"/>
<path d="M161.42 57.668H151.858V104.733H161.42V57.668Z" fill="white"/>
<path d="M104.315 68.5713C107.711 65.6841 109.666 61.3239 109.666 56.3536C109.666 46.5374 102.034 39 92.7363 39H63V104.733H102.034L110.192 96.6701V75.1095L104.315 69.4907V68.5713ZM72.5612 47.3262H91.1574C96.4203 47.3262 100.543 51.3579 100.543 56.5289C100.543 61.6999 96.4203 65.8191 91.1574 65.8191H72.5612V47.3262ZM100.28 96.4071H72.5612V74.2331H100.28V96.4071Z" fill="white"/>
<path d="M257.733 62.3136H256.768C252.294 58.8078 247.382 57.0549 241.943 57.0549C228.172 57.0549 217.295 67.66 217.295 81.5076C217.295 95.3556 227.558 105.347 241.593 105.347C247.557 105.347 252.557 103.506 256.768 100.088H257.733V104.734H267.294V57.6684H257.733V62.3136ZM242.119 97.1085C233.26 97.1085 226.154 90.0968 226.154 81.1573C226.154 72.2175 233.26 65.2934 242.119 65.2934C250.978 65.2934 257.996 72.3051 257.996 81.1573C257.996 90.0092 250.978 97.1085 242.119 97.1085Z" fill="white"/>
<path d="M274.224 57.668V104.733H283.785V65.9943H304.486V104.733H314.047V65.5561L306.153 57.668H274.224Z" fill="white"/>
<path d="M212.033 39H202.472V48.5532H212.033V39Z" fill="white"/>
<path d="M178.35 39H168.613V104.733H178.35V39Z" fill="white"/>
<path d="M345.888 65.9068V57.6681H330.451V44.1709H320.89V94.8295C320.89 100.439 325.098 104.733 330.714 104.733H345.888V96.4069H330.451V65.9068H345.888Z" fill="white"/>
<path d="M212.033 57.668H202.472V104.733H212.033V57.668Z" fill="white"/>
<path d="M195.277 39H185.54V104.733H195.277V39Z" fill="white"/>
</g>
<defs>
<clipPath id="clip0_11229_4718">
<rect width="282.889" height="67" fill="white" transform="translate(63 39)"/>
</clipPath>
</defs>
</svg>
